<mxfile host="app.diagrams.net" agent="Mozilla/5.0 (Windows NT 10.0; Win64; x64) AppleWebKit/537.36 (KHTML, like Gecko) Chrome/132.0.0.0 Safari/537.36" version="26.0.10">
  <diagram name="Page-1" id="HNd7iQrOMmQGfQ04bwC_">
    <mxGraphModel dx="1050" dy="522" grid="1" gridSize="10" guides="1" tooltips="1" connect="1" arrows="1" fold="1" page="1" pageScale="1" pageWidth="827" pageHeight="1169" math="0" shadow="0">
      <root>
        <mxCell id="0" />
        <mxCell id="1" parent="0" />
        <mxCell id="91wpVZsnCBgPuufkJKgJ-11" value="Boat Page" style="swimlane;fontStyle=1;align=center;verticalAlign=top;childLayout=stackLayout;horizontal=1;startSize=26;horizontalStack=0;resizeParent=1;resizeParentMax=0;resizeLast=0;collapsible=1;marginBottom=0;whiteSpace=wrap;html=1;" vertex="1" parent="1">
          <mxGeometry x="130" y="190" width="350" height="220" as="geometry" />
        </mxCell>
        <mxCell id="91wpVZsnCBgPuufkJKgJ-1" value="&lt;span style=&quot;font-weight: 700;&quot;&gt;Page Attributes&lt;/span&gt;" style="text;strokeColor=none;fillColor=none;align=center;verticalAlign=top;spacingLeft=4;spacingRight=4;overflow=hidden;rotatable=0;points=[[0,0.5],[1,0.5]];portConstraint=eastwest;whiteSpace=wrap;html=1;" vertex="1" parent="91wpVZsnCBgPuufkJKgJ-11">
          <mxGeometry y="26" width="350" height="26" as="geometry" />
        </mxCell>
        <mxCell id="91wpVZsnCBgPuufkJKgJ-8" value="" style="line;strokeWidth=1;fillColor=none;align=left;verticalAlign=middle;spacingTop=-1;spacingLeft=3;spacingRight=3;rotatable=0;labelPosition=right;points=[];portConstraint=eastwest;strokeColor=inherit;" vertex="1" parent="91wpVZsnCBgPuufkJKgJ-11">
          <mxGeometry y="52" width="350" height="6" as="geometry" />
        </mxCell>
        <mxCell id="91wpVZsnCBgPuufkJKgJ-15" value="+ field: type" style="text;strokeColor=none;fillColor=none;align=left;verticalAlign=top;spacingLeft=4;spacingRight=4;overflow=hidden;rotatable=0;points=[[0,0.5],[1,0.5]];portConstraint=eastwest;whiteSpace=wrap;html=1;" vertex="1" parent="91wpVZsnCBgPuufkJKgJ-11">
          <mxGeometry y="58" width="350" height="26" as="geometry" />
        </mxCell>
        <mxCell id="91wpVZsnCBgPuufkJKgJ-6" value="" style="line;strokeWidth=1;fillColor=none;align=left;verticalAlign=middle;spacingTop=-1;spacingLeft=3;spacingRight=3;rotatable=0;labelPosition=right;points=[];portConstraint=eastwest;strokeColor=inherit;" vertex="1" parent="91wpVZsnCBgPuufkJKgJ-11">
          <mxGeometry y="84" width="350" height="8" as="geometry" />
        </mxCell>
        <mxCell id="91wpVZsnCBgPuufkJKgJ-5" value="&lt;span style=&quot;font-weight: 700;&quot;&gt;Page Widgets&lt;/span&gt;" style="text;strokeColor=none;fillColor=none;align=center;verticalAlign=top;spacingLeft=4;spacingRight=4;overflow=hidden;rotatable=0;points=[[0,0.5],[1,0.5]];portConstraint=eastwest;whiteSpace=wrap;html=1;" vertex="1" parent="91wpVZsnCBgPuufkJKgJ-11">
          <mxGeometry y="92" width="350" height="26" as="geometry" />
        </mxCell>
        <mxCell id="91wpVZsnCBgPuufkJKgJ-4" value="" style="line;strokeWidth=1;fillColor=none;align=left;verticalAlign=middle;spacingTop=-1;spacingLeft=3;spacingRight=3;rotatable=0;labelPosition=right;points=[];portConstraint=eastwest;strokeColor=inherit;" vertex="1" parent="91wpVZsnCBgPuufkJKgJ-11">
          <mxGeometry y="118" width="350" height="8" as="geometry" />
        </mxCell>
        <mxCell id="91wpVZsnCBgPuufkJKgJ-12" value="+ field: type" style="text;strokeColor=none;fillColor=none;align=left;verticalAlign=top;spacingLeft=4;spacingRight=4;overflow=hidden;rotatable=0;points=[[0,0.5],[1,0.5]];portConstraint=eastwest;whiteSpace=wrap;html=1;" vertex="1" parent="91wpVZsnCBgPuufkJKgJ-11">
          <mxGeometry y="126" width="350" height="26" as="geometry" />
        </mxCell>
        <mxCell id="91wpVZsnCBgPuufkJKgJ-13" value="" style="line;strokeWidth=1;fillColor=none;align=left;verticalAlign=middle;spacingTop=-1;spacingLeft=3;spacingRight=3;rotatable=0;labelPosition=right;points=[];portConstraint=eastwest;strokeColor=inherit;" vertex="1" parent="91wpVZsnCBgPuufkJKgJ-11">
          <mxGeometry y="152" width="350" height="8" as="geometry" />
        </mxCell>
        <mxCell id="91wpVZsnCBgPuufkJKgJ-9" value="&lt;span style=&quot;font-weight: 700;&quot;&gt;Page Methods&lt;/span&gt;" style="text;strokeColor=none;fillColor=none;align=center;verticalAlign=top;spacingLeft=4;spacingRight=4;overflow=hidden;rotatable=0;points=[[0,0.5],[1,0.5]];portConstraint=eastwest;whiteSpace=wrap;html=1;" vertex="1" parent="91wpVZsnCBgPuufkJKgJ-11">
          <mxGeometry y="160" width="350" height="26" as="geometry" />
        </mxCell>
        <mxCell id="91wpVZsnCBgPuufkJKgJ-2" value="" style="line;strokeWidth=1;fillColor=none;align=left;verticalAlign=middle;spacingTop=-1;spacingLeft=3;spacingRight=3;rotatable=0;labelPosition=right;points=[];portConstraint=eastwest;strokeColor=inherit;" vertex="1" parent="91wpVZsnCBgPuufkJKgJ-11">
          <mxGeometry y="186" width="350" height="8" as="geometry" />
        </mxCell>
        <mxCell id="91wpVZsnCBgPuufkJKgJ-14" value="+ method(type): type" style="text;strokeColor=none;fillColor=none;align=left;verticalAlign=top;spacingLeft=4;spacingRight=4;overflow=hidden;rotatable=0;points=[[0,0.5],[1,0.5]];portConstraint=eastwest;whiteSpace=wrap;html=1;" vertex="1" parent="91wpVZsnCBgPuufkJKgJ-11">
          <mxGeometry y="194" width="350" height="26" as="geometry" />
        </mxCell>
      </root>
    </mxGraphModel>
  </diagram>
</mxfile>
